<svg width="60" height="60" viewBox="0 0 60 60" fill="none" xmlns="http://www.w3.org/2000/svg">
<path d="M16.2001 24.36C13.4041 28.938 10.7281 33.804 8.05209 38.472C7.77609 38.952 7.10409 39.18 6.57009 38.868L3.87609 37.314C3.39009 37.032 3.18609 36.33 3.48009 35.826L11.5801 21.78C11.9281 21.252 12.5101 21.012 13.0861 21.348L15.7861 22.908C16.2901 23.19 16.4701 23.85 16.2001 24.36ZM25.7461 44.124C25.2241 43.266 24.1501 42.978 23.3161 43.44L17.4241 46.842C16.5841 47.328 16.2781 48.42 16.7701 49.302C17.2861 50.154 18.3601 50.442 19.2001 49.98L25.0861 46.578C25.9261 46.098 26.2261 45.012 25.7461 44.124ZM29.1001 47.886C28.6381 47.04 27.4981 46.728 26.6821 47.196L21.6901 50.076C20.8501 50.562 20.5501 51.642 21.0301 52.536C21.5461 53.388 22.6141 53.682 23.4541 53.226L28.4461 50.346C29.2921 49.854 29.5921 48.738 29.1001 47.886ZM22.1221 40.518C21.5941 39.648 20.4961 39.366 19.6561 39.852C17.7061 40.98 15.7561 42.102 13.8061 43.23C12.9481 43.722 12.6481 44.838 13.1461 45.696C13.6321 46.542 14.7301 46.848 15.5821 46.374L21.4981 42.96C22.3021 42.456 22.5961 41.394 22.1221 40.518ZM33.9541 53.28C33.7621 54.072 33.1621 54.858 32.4421 55.272L31.3201 55.92L32.0461 56.34C32.8861 56.826 33.9901 56.484 34.4641 55.656C34.9321 54.852 34.7041 53.814 33.9541 53.28ZM32.4781 51.642C31.9741 50.808 30.9301 50.478 30.0541 50.952L26.3521 53.088C25.5001 53.58 25.2001 54.696 25.6921 55.548C26.1901 56.394 27.3001 56.706 28.1581 56.208L31.8061 54.102C32.6821 53.598 32.9521 52.512 32.4781 51.642ZM46.2181 43.248L35.3221 36.954C34.0921 36.678 32.9881 36.048 32.1421 35.112L30.9241 35.346V35.898C30.9241 38.142 29.8321 39.6 28.5901 40.248C27.7861 40.668 26.8021 40.806 25.9561 40.416C25.1341 40.038 24.5641 39.234 24.5941 38.01L24.5581 32.892C24.5521 32.202 24.8281 31.404 25.2541 30.696C25.6801 29.982 26.2741 29.334 26.8981 28.944L28.2721 28.086C26.8201 27.858 25.3321 27.912 23.8921 28.23C22.2421 28.602 20.6821 28.362 19.2181 27.516L16.7341 26.082L9.79209 38.112C10.3861 38.454 10.9561 38.76 11.4841 39.216C11.7901 39.486 12.0721 39.78 12.3361 40.116C12.8461 40.77 13.4881 41.19 14.2801 41.424L18.9901 38.706C20.4841 37.842 22.4101 38.358 23.2801 39.87C23.6521 40.536 23.7601 41.256 23.6461 41.934C24.9181 41.712 26.2081 42.294 26.9041 43.464C27.3061 44.196 27.4021 44.958 27.2521 45.666C28.4521 45.558 29.6161 46.146 30.2341 47.184C30.6421 47.796 30.7561 48.714 30.6061 49.422C32.1481 49.272 33.5521 50.262 33.9421 51.726L36.3961 53.142C37.2541 53.634 38.3701 53.334 38.8621 52.482C39.3961 51.552 39.0421 50.718 38.2921 50.07L37.5061 49.62C37.1881 49.44 37.0801 49.032 37.2601 48.714C37.4401 48.396 37.8481 48.288 38.1661 48.468L40.7521 49.962C41.6101 50.46 42.7201 50.154 43.2181 49.302C43.6741 48.51 43.4761 47.37 42.6541 46.896L41.1961 46.056C40.8781 45.87 40.7701 45.462 40.9561 45.15C41.1421 44.832 41.5501 44.724 41.8621 44.91L44.3821 46.368C45.3241 46.908 46.3321 46.554 46.8661 45.672C47.3641 44.838 47.0401 43.746 46.2181 43.248ZM40.8721 27.45C39.3001 28.356 37.6081 28.572 35.8561 28.08C34.9861 27.834 34.0741 27.66 33.1681 27.648C32.1061 27.636 31.2481 27.822 30.3301 28.362L27.6001 30.066C27.1561 30.342 26.7181 30.828 26.3941 31.368C26.0821 31.884 25.8841 32.436 25.8841 32.88L25.9201 37.992C25.9321 38.484 26.0041 38.97 26.5021 39.204C26.9581 39.414 27.5461 39.288 27.9721 39.066C29.1301 38.46 29.5861 37.128 29.5861 35.892V34.83C29.5681 34.5 29.7961 34.2 30.1261 34.14L32.2621 33.732C32.4961 33.69 32.7481 33.774 32.9101 33.978C34.0201 35.394 35.8141 35.994 37.5721 35.724C37.9321 35.67 38.2741 35.916 38.3281 36.276C38.3701 36.564 38.2261 36.834 37.9861 36.96C40.5601 38.442 43.1461 39.918 45.7081 41.412C46.5001 41.178 47.1301 40.758 47.6401 40.11C48.1681 39.438 48.7621 38.928 49.5001 38.502L50.1781 38.112L43.2481 26.082L40.8721 27.45ZM56.5201 35.832L48.3841 21.744C48.0901 21.228 47.4181 21.048 46.9021 21.342L44.2021 22.902C43.6981 23.19 43.5181 23.85 43.7881 24.36L51.9361 38.472C52.2241 38.976 52.9141 39.18 53.4181 38.868L56.1121 37.314C56.6221 37.02 56.8261 36.342 56.5201 35.832ZM19.4881 15.228C19.3981 14.424 19.3981 13.608 19.4881 12.804C19.5361 12.402 19.8241 12.09 20.2201 12.018C21.0901 11.85 21.7621 11.412 22.0441 10.74C22.3261 10.068 22.1581 9.282 21.6601 8.544C21.4321 8.208 21.4501 7.788 21.7021 7.47C22.2121 6.828 22.7941 6.246 23.4361 5.736C23.7541 5.484 24.1741 5.472 24.5101 5.694C25.2481 6.192 26.0341 6.36 26.7061 6.078C27.3841 5.796 27.8221 5.124 27.9901 4.248C28.0681 3.852 28.3801 3.564 28.7761 3.516C29.5921 3.42 30.4141 3.42 31.2241 3.516C31.6261 3.564 31.9381 3.852 32.0101 4.248C32.1781 5.124 32.6161 5.802 33.2941 6.078C33.9661 6.36 34.7581 6.192 35.4901 5.694C35.8261 5.466 36.2461 5.484 36.5641 5.736C37.2061 6.246 37.7881 6.828 38.2981 7.47C38.5501 7.788 38.5621 8.208 38.3401 8.544C37.8421 9.282 37.6741 10.068 37.9561 10.74C38.2321 11.412 38.9041 11.85 39.7801 12.018C40.1761 12.096 40.4641 12.408 40.5121 12.804C40.6021 13.608 40.6021 14.424 40.5121 15.228C40.4641 15.63 40.1761 15.942 39.7801 16.014C38.9101 16.182 38.2381 16.62 37.9561 17.292C37.6741 17.964 37.8421 18.75 38.3401 19.488C38.5681 19.824 38.5501 20.244 38.2981 20.562C37.7881 21.204 37.2061 21.786 36.5641 22.296C36.2461 22.548 35.8261 22.56 35.4901 22.338C34.7521 21.84 33.9661 21.672 33.2941 21.954C32.6161 22.236 32.1781 22.908 32.0101 23.784C31.9321 24.18 31.6201 24.468 31.2241 24.516C30.4081 24.612 29.5861 24.612 28.7761 24.516C28.3741 24.468 28.0621 24.18 27.9901 23.784C27.8221 22.908 27.3841 22.23 26.7061 21.954C26.0341 21.672 25.2421 21.84 24.5101 22.338C24.1741 22.566 23.7541 22.548 23.4361 22.296C22.7941 21.786 22.2121 21.204 21.7021 20.562C21.4501 20.244 21.4381 19.824 21.6601 19.488C22.1581 18.75 22.3261 17.964 22.0441 17.292C21.7681 16.62 21.0961 16.182 20.2201 16.014C19.8241 15.936 19.5361 15.624 19.4881 15.228ZM23.8621 14.016C23.8621 17.4 26.6101 20.148 29.9941 20.148C33.3781 20.148 36.1261 17.4 36.1261 14.016C36.1261 10.632 33.3781 7.884 29.9941 7.884C26.6101 7.884 23.8621 10.626 23.8621 14.016ZM27.5641 15.756C27.8401 16.092 28.2061 16.284 28.6321 16.32C29.0581 16.362 29.4541 16.236 29.7841 15.96L33.4621 12.87C33.7441 12.636 33.7801 12.216 33.5461 11.934C33.3121 11.652 32.8921 11.616 32.6101 11.85L28.9321 14.94C28.8781 14.988 28.8241 15.006 28.7521 15C28.6801 14.994 28.6321 14.97 28.5901 14.916L27.2941 13.344C27.0601 13.062 26.6401 13.02 26.3581 13.254C26.0761 13.488 26.0341 13.908 26.2681 14.19L27.5641 15.756Z" fill="#0E1418"/>
</svg>
